/* XPM */
static char *_639faea49ad4e0f89ee36a91437edff74dhrVdMlz1U3yd2[] = {
/* columns rows colors chars-per-pixel */
"96 96 54 1 ",
"  c #632E00",
". c #663200",
"X c #683605",
"o c #693807",
"O c #69350A",
"+ c #6B3B0B",
"@ c #6E3C15",
"# c #6F4215",
"$ c #704316",
"% c #71451B",
"& c #754523",
"* c #744B23",
"= c #77492A",
"- c #784F2B",
"; c #79532D",
": c #7B5533",
"> c #7C5835",
", c #7F5C3A",
"< c #805D3E",
"1 c #826343",
"2 c #86654C",
"3 c #876A4D",
"4 c #886751",
"5 c #896B52",
"6 c #8D735C",
"7 c #8F7161",
"8 c #8F7860",
"9 c #917566",
"0 c #927769",
"q c #937B6C",
"w c #967D73",
"e c #987F75",
"r c #95826F",
"t c #928476",
"y c #988076",
"u c #998877",
"i c #948679",
"p c #998379",
"a c #95897D",
"s c #9B8D7E",
"d c #968C82",
"f c #9B8E83",
"g c #9B9086",
"h c #9D938A",
"j c #A09387",
"k c #A1968C",
"l c #A3998F",
"z c #A49B92",
"x c #A79F98",
"c c #ACA395",
"v c #A7A098",
"b c #A8A19B",
"n c #B0A797",
"m c #B1AA98",
/* pixels */
"...............................................................o O   Oo  o......................",
".......  ..... ..............................o....... .  .  .               .......... .........",
".... +##########$$$$#$$$$$###o ................ +$##$##$########%@@=%*#%$%##$#.....#$$##$%+.....",
"....2hkkhllhkklhzhhhhhhhhhhhzd,$+o..  ..  .... ;sllhllhhhkkkkkkkvhdddhhhhhhhhh3+..8hhhhhhhh8o...",
"...1bzgghdgdhhghddhhhggdhhhzzvvlgat8311>;*%#.o3vzzhghhddhdddghhhddddddddhhddhvvd;8vhhdhhddvb8...",
"..+jzgdaddddaddadtddddddddhzllzvzzvvvvvzzzlhaavlzhadddddddddaddadtddddddddtddddvzvhddddddddzz$..",
"..$lhdddddtdaddddddddddddgzlldddhhhhhhhlzzlzzzlzhadaddtddddddddadddddddddddddddvhdtdddddddddz* .",
"..#lhdaddddddddaddtddddddzllddddaaddddddddghlzzddddddddddddtddddddddddddddddddzhddddddddddddz*..",
"  %hdddddddddtdddddddddazzhdddddddddddddddddlzhdtdddddddddddddddddddddtdtddddhhdddddddddddddv*..",
"X $zhddddddddddddddddddgzzdddddddddddddddddllhddddddddddddddddtdtttttt7tttttddddddddddddddddz* .",
". #hhddddddddddddddddddzkdddddddadddddddddllhdddddddddddddddddddtttttttttttttttdddddddddddddz*..",
". %zddddddddddddddddddvkgddddddddddddddddhlhdddddddddddddddddddttttttttttttttttdddddddddddddz* .",
"..+dhdddddddddddddddakvgdddddddddddddddddkhdddddddddddddddddddttttt7ttttttdtttttdddddddddddhv* .",
"...,zdddddddddddddddkvdddddddgddddddddddhhdddddddddddddddddddttttttttttdddddddttddddddddddddv* .",
"...#dgddddddddddddadvadddddddddddddddddddddddddddddddddddddddtttttttttddddddddtqtdddddddddddv* .",
"... 5hdddddddddddddvgddddddddddddddddddddddddddddddddddddddddtttttttttddddddddtttdddddddddddv* .",
"....%hddddddddddddlgddddddgdddddddddddddddddhddddddddddddddddddttttttttdddddddttdddddddddddgz* .",
".....rhdddgddddddhhdddddddddddddddddddddddddddddddddddddddddddttttttttttdddddtttdddddgdddddgz*..",
".... rzdddgdggddghddgdgddddggdgghdddhdddhddddddddddddhhdddddddttttttttttttdttttddddadggddgdgz* .",
".....tzdgddddddggdgddddgdgddddddddhddddhdddhdddhddddddddhddhddttttttttttttttttddatttdddddddgz*..",
".....ihddgdggddgdddddddddddddgdddddddhddhdddhdddddhdddddddddddddtttttttttttttddatttttadddddgv* .",
".... alddgddddsaatttiiiddagdddgghddhdddddddhdddddddddhhdddhdddddtttttdtttttdddttttatttddgddgz* .",
"... >hhddddddattttttttittddggdddddddddhdhdddgdddddddddddhddgdhdddattttttdddddatttttttagddgggz* .",
"...3vzhdgdgdiittitttititttaddgdhhddhhddddddhddghhdhddhhdhddhddddddddtddddddddattttttdddgddggv* .",
"..#vzlggdgdatititttittiitittaadddhddhhdddhdddhdddhdhhdddddhdddhddhddhdhddgdgttatttddddgdgdghz* .",
"..#hzlddgdattitttittittttttiiagddddhdddhdhdhddgdddddddhhdhddhdhddhdhhdddgdgddttdadgdgddgdgdgv* .",
"..#hzlggdattttttiitittittttiiiagdhddhddhddddhddghdhdddddddhhdhdddddhdddhdggddddgggdddggdgddhl#..",
"..$llgdddatttittaittitttiittiaaghdhdddhddhhddghddhddhhhdhddddddhhdgddhhdgddgggdggdgggdggdggz8 ..",
"..$lhfdgdaititisttttitiiiitituiahddhgdhddhdhdhdhhhdhhdhdhdhdhdhdhddgdgddggdgddhdhddhddggffhz%...",
"..%hhfggdtttiisiatiiittiiittitasdhdddhdhhdhdhdhdddhddhdhdhdhdhdhddhdhdhhdggdhddhddhdgggdhhvr....",
". #zhdhgdiiiisuittaiitiitiiiiiihhddhdhdhhdhdddhdhddhhddhdhdddhdhdhdhdhhdhdgdhdhdhdhdhdgdhzv:....",
"..#hhhdgdiiiusiititiiiiiiitiiissdhgdhdhddhdhdhdhdhddddhdhdhdhdhdhdhdhddhdhdhdhdhdhdhdhdllzt.....",
"...tlddgfitssiiiiiuitiiitiitddgdhddhdddhhdddhdhdhdhdddhdhdddhhdddhdhdhdhggdhhdhgggdhgdhlhvr ....",
"...;zhgggsusuiiiiiiiiuiiiiiafgggdhhdhhhddhhhdhdhdhdhhhhdhhhdhdhhghhdhdhddhdgdhgdgghdghlzzzuX....",
"...Xazgggggsiiiiiuiuiiiiiidfgggghhdhhdhdhddhhgddgdhghdhhdhghhddhgddhddhgdhhghdhdddhhhlllhzz$....",
"...ouvhghhhiiiiaiiiiiiiiishdggggdhhdhhdhhdhhdhhhhhhddhddhddhdhhdhdhhhhdhhhdghdghhhdhlzhhghv; ...",
"...*vhhhzlhattaiiiiuiiiifdhgggghhdhhddhddhhdhddhdhdhdhdhdhhdhhdhdhhddhhddhhdhhhddhhllhgdghv,....",
".. 6chghzhghdatiiiiiiiahfhhdggddhhddhhhhggdhhhhddhggdhgghhdhhdghghdhhdhhdhdhhdhdhhhhhgghghz, ...",
"..+hzhhvhggggdddiiiuafghhhhgfdiuadhhdhggghghhdhhhhgghdhghdgghdhdhghdhhdhhgghhghhhhhhdhhgggv, ...",
"..#lzhzhhgggggddauiadgghddhgsuiyaadhhhdhhdhdhhdhhdhghhhghhgghhghdhghhdhhhghdggdhhhghhgggghv, ...",
"..#klllhhdhhhddhhfgggggggggdttaaaigghdhhhgghdhhhhhhhhdhdghhhdhdhdhhhdhdhdhhdhgghhhdhhhhhdhb< ...",
"..#lzlhhhhhdhhhhghggghggghddtaaiaagghdhdhggghhdhdhdhhhhhhddhhhdhhgdhhhhhhhhhgggghhdhdhdhhhx< ...",
". #lzlhghdgghhhdhghghghghhgddaiiagghhhhgggghdhdhhhhdhhhhhdhgdhhhghghhhhdhhhghghgdhhhhhhhhhx, ...",
"..#hzhghhhdhhdhhghhgghghdhhgdfdfghhghhghhhhghhhghhhhhddhhhhhhhhhhghgdhhhhdghghghhhhhdhhhhhx>....",
"..#lhhhhghgghhhhdhhdhghghghhhhhhggghhghgghhhghghdhhdhdhhhdhhhhdhhghghhdhhhdhghhghhhhdhhdhhx,  ..",
"..#hhhghhgghhdhdhhhhghghghghgggghghgghgghgghhghghhhhhhhhhhhhhhhhghhhhhhhhhhhhgghhhhhhhhhhkzdO ..",
"..#lhghhghhhhhhhhhhhdhhhghhghhhhhghhhghhghhgghghdhhhhhdhhhhdhhhhhhghhghhhhhhghhhghdhhhdhhklxto .",
"..#zhhhghhhhdhhhhhhhhhhhhghhhhhhghhgghhhhgghhhhhhhhhhhhhhhhhhdhhhghhghhhdhhhhhghhhhhhhhhhhllv* .",
". #hlhhhhghhhhhhhhhhhhghhghhhhhhhhhhhhhhhhhhhhhhhhhhhhhhhhhhhhhhghhhghhhhhghhhhhhhhhhhhhhhklz* .",
"..#lhhhhhhhghhhhhhhhhhghhhhhghhgghhhhhhhhhhhhhhhhhhhhhhhhhhhhghhhhhhhhhhhhhhhhhhhhhhhhhhhhhzz*..",
"..#llhhhhhhhhhhhhhhhhhhhhhghhhhhhhhhhhhhhhhhhhhhhhhhhhhhhhhhhhhhhhhhhhghhhhhhhhhhhhhhhhhhhhkx* .",
"..#kzhhhhhhhhhhghhhhhhhhhhhhhhhhhhhhhhhhhhhhhhhhhhhhhhhhhhghhhghhhhhhhhhhhhhhhhhhhhhhhhhhhhhz*..",
"..#klhhhhhhhhhhhhhhhhhhhhhhhhhhhhhhhhhhhhhhhhhhhhhzhhhhhhhhhhhhhhhhhhhhhhhhlhhhhhhhhhhhhhhhhz*..",
". #kkhhhhhhhhhhhhhhkhkhhhhhhkhkhhhhhhhhhhhhhhhhkhhhhhhzhlhhlhhhhhkkhhhkhhhhhhhhhhhhhhhhhhhhkz*..",
". #llhhhhkhkhhhhhkhhhhkhhhhhhhkhhlhhhhhhhhhhhhhkhhhhhhhhhhhhhlhhhhhhkhhkhhhhhhhllhhhhlhhhhhkz*..",
"..#kkhhhhhhhkhhhhhkhkhhhkhkhhhhhhhhhlhhhhhhhkhhhhhhhhhhhhhhhhhhhhkhkhhhhkhhkhhhhhhhhhhhkhhhkz* .",
". $kzkhhhhhhlhhlhkhkhhhhhhhhhhhhhhhhhhhhlhhhkhhhhlhhhhlhhhhhhhhhhhhhhkhkhhhhhhhhhhhhlhlhhhhkz& .",
"..#kkhhkhlhkhhhhhhhhkhkhkhjkkhkkhlhlhlhhhhhkhkhkhhhhlhhhhlhhlhhlkhkhhhhhkhkhkhkhlhhkhhlhhhkkz= .",
"..#lzhhhkhkhlhlhhkkhhkkhkhkhkhkhhhlhlhlhhhlhkhkhhlhlhllhhhllhhhlhkhkkkhkkhhlhlhlhhhhlhhhhlhlz* .",
". #klhlhhkhkhhlhkhkkkhhkhkhkhkkklhhhhhlhlhhhhkhkhhhlhhhhlhhhllhhkhkhhkkhhkhlhhhlhllhhhlhhlhhx* .",
"..#klhhhlhhhhhlhkhkhhkhkkhkhkhsghkhhhlhhhhllhhhhllhhhlhllhhhhhhlhkhkhkhhkhkhlhhhhhhlhhlhhkhll@ .",
"..#kzhhlhhlllhkhkhhkkhkhhkhkhaasfhhhlhhllhhhlhllhhhlhlhhhhlhhlhhkhkhkkkkhkkkhhlhllhhlhlhjllhc<  ",
". #klhhlhlhhhkhlhkhkkhkkkkkhsssssasfghlhlhlhlhlhlhlhlhlhlhhlhllhkkkhkkkkkkkkhlhlhllhllhljlkkl%  ",
"..$kzhlhlhlhlhlhkkkkkkkhkkkhssasssfaddghhlhlhlhlhlhlhlhlhllhlhllkkkkkkkkkhkklhlhlhhlhhlhjkkjj< X",
"..$kkkkkkkkhlhlhlhlhhlkhlhlgsssusssssssssfjjkkkkkkkkkkhkhlhlhlhlhlhlhlhllhllhllhllhllhlhlhhlv*..",
". $klkkkklkkkkhlhlhlkkhlkklssssssssaasasasdkkkkhkkkkkkkklhlhhllhlhlhlhlhhlhllhhllhlhhlhllllhv%..",
"..#kkkhklkjssssssghllhhlkhlhasssssssssssssjkhkkkkkkkkkkhhllhlhlhhhlzkkhllhllhhlhlhhlhhhlhhhlv* .",
"..#kzkkkjssssssssssghllhlkklhsssssssssssshkkzkkkkkkkkkkklhlkhllllllhkgggsshlllhllllhlllhllzlz* .",
"..$kzkkhsssjssssssssshlllhlhhhgsssssssssjkkkkzkklkzhkkkkhlllklkkkkjgssssssshkkklhllhlllllhkkv%..",
". $kkkkhssssssssssssssshhlllllhljjjfjjllkkkkkkkkhkklkzkklkhlkkkkjgssssssssssklkkhllhhlhlllkvh#..",
"..#kzkksssssssssssssssssshklllzlkkzkkklkkkkkkkkkzkkkkkkkkklklkkjsssssssssssskllklzllllllhlhl- ..",
". #klkjsssssjssssssgssssssssgshhkkkkkkkkkkzkkkzkkkklklhzlkkkklhsssssfssssshlhlzjlhhllhhlllvaX...",
". $klljsssssjssjsslsssssssssssssssjllllkklkllllllkllklllllklljsssssssssskllllllzlllzlljllllso...",
"..$kllksjssfssssssssscsssssjshsssjssjlllllllklkkllklllklklllkjssgssjssklllllzcjjhjjlllzlhlvso...",
"..$klllsssfsssssssssssssssssssssssssllkklkklllllhlllklllklkllgffsssssllllllknsssssssskcjllvso...",
". $kzlksssjsjssjsssssssshsssssjsssjsllllllllklllzllkllklllkllhsdssjklllllkjsssssssssssszlllso...",
"..$klklsjsssjssslssssssscsssssssjssjllllllkllllllllllklklllllkghklllllcjsssjssssssjsjsszllvs....",
". $kllzsssssssssssssnsssssssjssjssslzlllllllllllllllzllzllllllzllllllljssssssssssssssssllllso...",
". $klllssssjsssjssssssssssssssssssjlllllllllllzlllllllllllzllllllllllsssjsssjssssssssssslllso...",
"..$kzllssjssjsssssnsssssssslssjsssjzlllllllllznllzllllllllllllzllllljssjssjssslslssjsjssklvso...",
"..$zllcsssssjssjssssssssssssnsssssjllllllllnmnkkllllllllllllllllllllsjssssssssssssssslsscczso...",
"..X7cllsssscssssssssslssscssssssjslzlllzcnnnzkpllllzlllllzllllzllllljssssssssjssssssssssjjcs....",
"...Osllssssssssssssssssssssssssssskllccnmmckppjzlzllllllllllcjlllcllcssjsscssjsjssscjsssllzs+...",
"..X0zlljssssjssssssnssjssssssssssjlcmmnmncjeelzzllllllcllllllllzljljcjssscsssssssssssssscklz%...",
"..$zllllnsssjssjssssssssssssmsssfkcmmmnclswekllllllzzlllzllclllllllllcjsssssssssssssssszzlzb3...",
"..@llllccsssspssssssssssscssssssklnnmmzjewwlllllzlllllllllllzlllzlllllljsssjsjjsssssssjjlllzso..",
"..$lcjllllcsjjjssssssssssssssssmlzmmnlswqekzlzllzllzlllllllllllllllzcjlcnssjsssjssnsssncllhzz%..",
"..@ljclllllclljjmsmcmnnccnsscscmlnmxjewweklllllllllllllllllllllllllljcjscsnsssspssssmmcjllzlz*..",
"..@kzzkzlllllllzllzxlljfsczzllllcnlfwwwwjlllzczjllllclllllllllllllllllllllzljjjjjjllllllllllz*..",
"..%lzzzzzzzzzzzxlljppwwqrujzzzzzzjewweeeeeeeeejllzlljllllllllllllzllzlzzlllzllzzllllzllllzllz* .",
"..+pfsssfpffffpppeewwewwrwwypfsjpeq77779990qewwjllllllllllllllllljllllljlljjljljkklklllllkkkz%..",
"...2ewqwww0ewqwweeee07weueweee94<<@....XXXOO<eeweeeeeeeeeeeeeeeeeeeeeeeeeeeweweweewwwweewwwa7X..",
"..XO4eeeeeeeyyee94<&+.@<4094<=+.. ...X.....  <weeweeeweeeeeeeee0e0e0eeeeeeeweee0eeeeeeeeeee7@ ..",
"..  O&&<======&%X. ..... o+.. ..............  O%&&<=<&=&=======<&<&<<@@<==<&<==<<@@<======&O....",
".XX     . ..  .............................. XX    ..                                   .....O..",
".. XX   ........................X...X..X....XX X X..... ........X .....  X    ....  ............"
};
