/* XPM */
static char *_4175b8bb4b44e2ef3a030faec5efef2rzmpfXZQWxattJi5[] = {
/* columns rows colors chars-per-pixel */
"32 32 7 1 ",
"  c None",
". c #25131A",
"X c #427F3B",
"o c #523B40",
"O c #895A45",
"+ c #80A53F",
"@ c #BBC44E",
/* pixels */
" ...............................",
".+@@@@@@@@@@@@@@@@@@@@@@@@@@@@@@",
".X++++++++++++++++++++++++++++++",
".X++++++++++++++++++++++++++++++",
".X++++++++++++++++++++++++++++++",
".X++++++++++++++++++++++++++++++",
".X++++++++++++++++++++++++++++++",
".X++++++++++++++++++++++++++++++",
".X++++++++++++++++++++++++++++++",
".X++++++++++++++++++++++++++++++",
".X++++++++++++++++++++++++++++++",
".X++++++++++++++++++++++++++++++",
".X++++++++++++++++++++++++++++++",
".X++++++++++++++++++++++++++++++",
".X++++++++++++++++++++++++++++++",
".XXXXXXXXXXXXXXXXXXXXXXXXXXXXXXX",
".XXXXXXXXXXXXXXXXXXXXXXXXXXXXXXX",
".oOOOOOOOOOOOOOOOOOOOOOOOOOOOOOO",
".oOOOOOOOOOOOOOOOOOOOOOOOOOOOOOO",
".oOOoOOOOOOOOOOOOOOOOOOOOOOOOOOO",
".oOOOOOOooOOOOOOOOoOOOOOOOOOOOOo",
".ooOOOOOooOOOOOOOOOOOOOOOoOOOOOO",
".ooOOOOOOOOOOOOooOOOOOOOOOOOOooO",
".oOOOooOOOOOOOOooOOOOOooOOOOOooO",
".ooooooOOOooOOOOOOOOOOooOoooOOOO",
".ooooOOOOOooOOOOoooOOOOOOooooooo",
".ooooOOOoooOOOOOoooOooooOooooooo",
".oOOOOOOoooooooOoooOooooOOOOoooo",
".oOOOOOOooooOooOOOOOooooOOOOoooo",
".oOooooOooooOOOOOOooooooOOooooOO",
".ooooooooooooooooooooooooooooooo",
".ooooooooooooooooooooooooooooooo"
};
