/* XPM */
static char *_3882c18b812412bed7b780e109f804aOI6yTDYgplfOztsq[] = {
/* columns rows colors chars-per-pixel */
"32 32 26 1 ",
"  c #25131A",
". c #3D253B",
"X c #802954",
"o c #606060",
"O c #9BF0FD",
"+ c #9B4C51",
"@ c #56587B",
"# c #E84444",
"$ c #D01946",
"% c #E6DECA",
"& c #FFD569",
"* c #2A5A39",
"= c #9A8571",
"- c #BBC44E",
"; c white",
": c #E1A171",
"> c #BF704D",
", c #CAE6F5",
"< c #62ABD4",
"1 c #5880CC",
"2 c #523B40",
"3 c #A7ACBA",
"4 c #80A53F",
"5 c #895A45",
"6 c #427F3B",
"7 c black",
/* pixels */
"44444444444444444444444444444444",
"44444444444444444444444444444444",
"44444444444444444444444444444444",
"44444444444444444444444444444444",
"44444444444444444444444444444444",
"44444444444444444444444444444444",
"44444444444444444444444444444444",
"44444444444444444444444444444444",
"44444444444447777774444444444444",
"4444444444447&&&&&&7444444444444",
"444444444447:222222&744444444444",
"444444444447:......&744444444444",
"444444444447:::&&&&&744444444444",
"44444444447++:::::&##74444444444",
"44444444447++>:##:&+#74444444444",
"4444444444477>>+#:&7744444444444",
"44444444444447>:::74444444444444",
"444444444444447>:744444444444444",
"444444444444447>:744444444444444",
"444444444444477>:774444444444444",
"4444444444447>7>:7&7444444444444",
"444444444447>>:::&&&744444444444",
"4444444444447>::::&7444444444444",
"44444444444447777774444444444444",
"44444444444444444444444444444444",
"44444444444444444444444444444444",
"44444444444444444444444444444444",
"44444444444444444444444444444444",
"44444444444444444444444444444444",
"44444444444444444444444444444444",
"44444444444444444444444444444444",
"44444444444444444444444444444444"
};
