/* XPM */
static char *fcd58af879e84a11e94617bd0119fe6908Fnq3TKezLbtZme[] = {
/* columns rows colors chars-per-pixel */
"28 28 15 1 ",
"  c None",
". c #25131A",
"X c #2A5A39",
"o c #427F3B",
"O c #523B40",
"+ c #606060",
"@ c #802954",
"# c #D01946",
"$ c #895A45",
"% c #9B4C51",
"& c #BF704D",
"* c #E84444",
"= c #80A53F",
"- c #E1A171",
"; c #BBC44E",
/* pixels */
" XXXXXXXXXXXXXXXXXXXXXXXXXXX",
"X=;;;;;;;&-;;;;;;;;;;;;;;;;;",
".========#*&&======&**&=====",
".o======&#***&===&&##**&====",
".o======&##*#*&==$###**&====",
".o======*@@###&==$@@#*#&====",
".o======$@@@###&=$@@@##&====",
".o=======@@@###&=$@@@##&====",
".o=======$@@@###&@@@###&====",
".o=======$@@@####@@@###&&**&",
".o========$@@####@@@#####***",
".o========$@@@###@@@######*&",
".o=========@@@@#*@@@###@@$&=",
".oooooooooo++++$+@@@###@+ooo",
".ooooooooooooooo+@@@###+oooo",
".O$$$$$$$$$$$$$$@@@####$$$$$",
".O$$$$$$$$$$$$$$$$@##%%$$$$$",
".O$$$$$$$$$$$$$$$$$$$$$$$$$$",
".O$$$$$O$$$$$$$$$$$$$$$$$$$$",
".OO$$$$$$$$$$$$$$$$$$$$$$$$$",
".O$$$O$$$$$$$OO$$$$$O$$$$OO$",
".OOOO$$$$O$$$$$$$$$$$$OO$$$$",
".OOOO$$$$O$$$$OO$$$$$$OOOOOO",
".O$$$$$OOO$OO$OO$$OOO$$$OOOO",
".O$$$$$OOOOOO$OO$$OOO$$$$OOO",
".O$OOO$OOO$$$$$$OOOOO$$OOO$$",
".OOOOOOOOOOOOOOOOOOOOOOOOOOO",
".OOOOOOOOOOOOOOOOOOOOOOOOOOO"
};
