/* XPM */
static char *result[] = {
/* columns rows colors chars-per-pixel */
"32 32 26 1 ",
"  c #25131A",
". c #3D253B",
"X c #802954",
"o c #606060",
"O c #9BF0FD",
"+ c #9B4C51",
"@ c #56587B",
"# c #E84444",
"$ c #D01946",
"% c #E6DECA",
"& c #FFD569",
"* c #2A5A39",
"= c #9A8571",
"- c #BBC44E",
"; c white",
": c #E1A171",
"> c #BF704D",
", c #CAE6F5",
"< c #62ABD4",
"1 c #5880CC",
"2 c #523B40",
"3 c #A7ACBA",
"4 c #80A53F",
"5 c #895A45",
"6 c #427F3B",
"7 c black",
/* pixels */
"44444444444444444444444444444444",
"44444444444444$$##>4444444444444",
"44444=3333444$$$###>444444444444",
"44444=322344$$$$####>44444444444",
"44444=3223>$$$$$#####>4444444444",
"44444=3333>$$$$$######>444444444",
"444444oooo$$$$$$#######>44444444",
"444444oooo$$$$$$########>4444444",
"444444oooo$$$$$$#########>444444",
"444444oooo$$$$$$##########>44444",
"4444>5ooo$$$$$$$###########>4444",
"444>$Xoo$$$$$$$$############>444",
"44>$XX5$$$$$$$$$#############>44",
"44$$XX$$$$$$$$$$##############>4",
"44$$X$$$$$$$$$$$$##############4",
"44$$$$$$$$$$$$$XXX#############4",
"44$$$$$$$$$$$$XX5XX############4",
"44$$$$$$$$$$$XX555XX###########4",
"44$$$$$$$$$$XX55555XX##########4",
"44$$$$$$$$$XX5555555XX#########4",
"44$$$$$$$$XX555555555XX########4",
"44$$$$$$$XX55555555555XX#######4",
"44$$$$$$XX5>>>>>>>>>>>5XX######4",
"44$$$$$X555>>>>>>>>>>>555X#####4",
"44$$$$X5555>>5555555>>5555X####4",
"44$$$XX5555>>2222222>>5555XX###4",
"44$$XX55555>>2222222>>55555XX##4",
"44$XX555555>>2222222>>555555XX#4",
"44XX5>>5555>>2222222>>5555>>5XX4",
"4455>>>5555>>2222222>>5555>>>554",
"4444>>>5555>>2222222>>5555>>>444",
"4444>>>5555>>2222222>>5555>>>444"
};
