/* XPM */
static char *_c5eb696520248b1aa38bebad2e3a6a1eJrNaG9hEE3kdTnB[] = {
/* columns rows colors chars-per-pixel */
"32 32 14 1 ",
"  c None",
". c #25131A",
"X c #427F3B",
"o c #523B40",
"O c #606060",
"+ c #802954",
"@ c #D01946",
"# c #895A45",
"$ c #9B4C51",
"% c #BF704D",
"& c #E84444",
"* c #80A53F",
"= c #BBC44E",
"- c #A7ACBA",
/* pixels */
" ...............................",
".&&&%%%&&&&&&&&&&&&&&&&&&&======",
".&&%%--%&&&&&&&&&&&&&&&&&&******",
".@&%---%@@&&&&@@@@@@@@@@@@******",
".@&%#--%@@&&&&&@@@@@@@@@@@******",
".@&%#O-%@@&&&&&&@@@@@@@@@@******",
".@%%#OO@@@&&&&&&&@@@@@@@@@******",
".$%#OO#@@@&&&&&&&&@@@@@@&%******",
".$##O##@@@&&&&&&&&&@@@@@%%******",
".$%+##@@@@&&&&&&&&&&@@@@%%******",
".$%@@@@@@@@&&&&&&&&&@@@@%%******",
".$%@@@@@@@@@&&&&&&&&@@@@%%******",
".$%@@@@@@+##+@&&&&&&@@@@%%******",
".$%@@@@@+####@&&&&&&@@@@%%******",
".$%@@@@+######@&&&&&@@@@%%******",
".$$@@@+########@&&&&@@@@$#XXXXXX",
".$$@@#######%###@&&&@@@@$#XXXXXX",
".$@@########%####@&&@@@@$$######",
".$#######ooo######@@++++########",
".#%%#####ooo#####%##############",
".o%%#####ooo#####%%####%$######o",
".##%#####ooo#####%%%###%#o######",
".o#%#####ooo####%%%%###$#####oo#",
".o$%############$%%$##o######oo#",
".oooooo###oo##########oo#ooo####",
".oooo#####oo####ooo######ooooooo",
".oooo###ooo#####ooo#oooo#ooooooo",
".o######ooooooo#ooo#oooo####oooo",
".o######oooo#oo#####oooo####oooo",
".o#oooo#oooo######oooooo##oooo##",
".ooooooooooooooooooooooooooooooo",
".ooooooooooooooooooooooooooooooo"
};
