/* XPM */
static char *result[] = {
/* columns rows colors chars-per-pixel */
"32 32 26 1 ",
"  c #25131A",
". c #3D253B",
"X c #802954",
"o c #606060",
"O c #9BF0FD",
"+ c #9B4C51",
"@ c #56587B",
"# c #E84444",
"$ c #D01946",
"% c #E6DECA",
"& c #FFD569",
"* c #2A5A39",
"= c #9A8571",
"- c #BBC44E",
"; c white",
": c #E1A171",
"> c #BF704D",
", c #CAE6F5",
"< c #62ABD4",
"1 c #5880CC",
"2 c #523B40",
"3 c #A7ACBA",
"4 c #80A53F",
"5 c #895A45",
"6 c #427F3B",
"7 c black",
/* pixels */
"44444444444444444444444444444444",
"44444444444=>&&&&&&>-=4444444444",
"444444444>%%%&&&&&&&;;%-44444444",
"44444444>>%%%======&;;;;%4444444",
"4444445>>>522......55%;;;%444444",
"444445>>>5............%;;;%44444",
"44445>>>...............2%;&&4444",
"4444>>>2................2%&;%444",
"444>>>....................;;;-44",
"44>>>5....................%;;%44",
"44>>5......................%%&44",
"44>>2......................5&&-4",
"45>>2......................5&&>4",
"4==2........................=%%4",
"4==5........................=%%4",
"4==5........................5>>4",
"4==5........................5>>4",
"4==2........................5>>4",
"4552........................5>>4",
"42552......................2>>54",
"44552......................2>>44",
"44552......................5>>44",
"444555....................5>>>44",
"444555....................>>>444",
"4444555.................2>>>4444",
"44442555................>>>54444",
"4444425555............5>>>544444",
"4444442555222......225>>>5444444",
"4444444455555222255===>>44444444",
"44444444445555555=====>444444444",
"44444444444425555==5444444444444",
"44444444444444444444444444444444"
};
