/* XPM */
static char *_9cb19f851364f57c029d571b3b514b88CHHVojpgGpBeUqc[] = {
/* columns rows colors chars-per-pixel */
"32 32 16 1 ",
"  c None",
". c #25131A",
"X c #3D253B",
"o c #2A5A39",
"O c #427F3B",
"+ c #523B40",
"@ c #606060",
"# c #802954",
"$ c #895A45",
"% c #9B4C51",
"& c #BF704D",
"* c #80A53F",
"= c #9A8571",
"- c #E1A171",
"; c #BBC44E",
": c #A7ACBA",
/* pixels */
" ...............................",
".*;;;;;;;;;;;;;;;;;;;;;;;;;;;;;;",
".O*************++++O************",
".O************+%%%%+************",
".O***********+%%&--%************",
".O***********#+%---%************",
".O***********..----%************",
".O************o&-==@************",
".O**********OX##&==@************",
".O*********O==###==#O***********",
".O*********@:=###==#X***********",
".O*********@:=###=##X***********",
".O*********@:=#####+************",
".O*********@:=######************",
".O*********@=-%####%+***********",
".OOOOOOOOOOO%-%XXXX%%oOOOOOOOOOO",
".OOOOOOOOOOO%--%###%&+OOOOOOOOOO",
".+$$$$$$$$$$$&-%#%=#+.$$$$$$$$$$",
".+$$$$$$$$$$$&-%#=:++.$$$$$$$$$$",
".+$$+$$$$$$$$+###%=++.$$$$$$$$$$",
".+$$$$$$++$$$+###@@#+.$$$$$$$$$+",
".++$$$$$++$$$+%==@@++.$$$+$$$$$$",
".++$$$$$$$$$$+===@@++.$$$$$$$++$",
".+$$$++$$$$$$+@==@@++.++$$$$$++$",
".++++++$$$++$+@==@+.+.++$+++$$$$",
".++++$$$$$++$+===@+.+.$$$+++++++",
".++++$$$+++$$+@=@@+X+.++$+++++++",
".+$$$$$$++++XXX@++X++.++$$$$++++",
".+$$$$$$++++$...XX++..++$$$$++++",
".+$++++$++++$$$X..X+++++$$++++$$",
".+++++++++++++++++++++++++++++++",
".+++++++++++++++++++++++++++++++"
};
