/* XPM */
static char *_02187b4eda14063e162ea0795b917fbYOweGmI2IgAYuDtQ[] = {
/* columns rows colors chars-per-pixel */
"32 32 26 1 ",
"  c #25131A",
". c #3D253B",
"X c #802954",
"o c #606060",
"O c #9BF0FD",
"+ c #9B4C51",
"@ c #56587B",
"# c #E84444",
"$ c #D01946",
"% c #E6DECA",
"& c #FFD569",
"* c #2A5A39",
"= c #9A8571",
"- c #BBC44E",
"; c white",
": c #E1A171",
"> c #BF704D",
", c #CAE6F5",
"< c #62ABD4",
"1 c #5880CC",
"2 c #523B40",
"3 c #A7ACBA",
"4 c #80A53F",
"5 c #895A45",
"6 c #427F3B",
"7 c black",
/* pixels */
"44444444444444444444444444444444",
"44444444444444444444444444444444",
"44444444444444444444444444444444",
"44444444444444444444444444444444",
"44444444444444444444444444444444",
"44444444444444444444444444444444",
"44444444444444444444444444444444",
"44444444477444444444444444444444",
"4444444447@744444444774444444444",
"4444444477@@74444447@74444444444",
"444444447@@@@744447@@74444444444",
"4444444447@@@@74447@@74444444444",
"44444444477@@@7447@@774444444444",
"4444444447@@@@,747,@@74444444444",
"444444444477@@,747,7774744444444",
"44444444447@@@@,777@@@7744444444",
"444444444447@@@;@@@@&@7444444444",
"4444444444477@@;@@@@@@;444444444",
"44444447777@@@,;;@@@777744444444",
"44444447@@@@@;,,;;@7444744444444",
"444444447777&7#77774444444444444",
"4444444447&&7#744444444444444444",
"44444444477777444444444444444444",
"44444444444444444444444444444444",
"44444444444444444444444444444444",
"44444444444444444444444444444444",
"44444444444444444444444444444444",
"44444444444444444444444444444444",
"44444444444444444444444444444444",
"44444444444444444444444444444444",
"44444444444444444444444444444444",
"44444444444444444444444444444444"
};
