/* XPM */
static char *ab20b1a6c37748a8c9b1bccf10887bc0ffQkwp9k5dWflCqT[] = {
/* columns rows colors chars-per-pixel */
"50 50 76 1 ",
"  c #322F47",
". c #3D3957",
"X c #5D6E78",
"o c #9B1F42",
"O c #A72952",
"+ c #BF2651",
"@ c #5DB63C",
"# c #5EB939",
"$ c #61B53F",
"% c #64BA3B",
"& c #74BE3F",
"* c #78BF3D",
"= c #7DC43E",
"- c #4E955E",
"; c #4F9C58",
": c #569A5C",
"> c #53AC46",
", c #5CAD4A",
"< c #5CA356",
"1 c #61AC4F",
"2 c #6AAE4D",
"3 c #64B541",
"4 c #68B642",
"5 c #6DB942",
"6 c #6EB34B",
"7 c #70B747",
"8 c #76BB43",
"9 c #7BBD45",
"0 c #74B54D",
"q c #7AB64E",
"w c #76B848",
"e c #7AB94A",
"r c #63A655",
"t c #65AC50",
"y c #6AAA53",
"u c #6CA55B",
"i c #6EA959",
"p c #72AE54",
"a c #7CAE56",
"s c #72A65B",
"d c #76AC5A",
"f c #7BAE5C",
"g c #6FB052",
"h c #75B252",
"j c #7DB452",
"k c #7FB950",
"l c #77A961",
"z c #7CC143",
"x c #88CD34",
"c c #82C43E",
"v c #8ACC3B",
"b c #94CF3A",
"n c #99D33C",
"m c #A2D83C",
"M c #81BF47",
"N c #84BD4C",
"B c #88BE4D",
"V c #82B554",
"C c #85BA51",
"Z c #8ABB50",
"A c #83C146",
"S c #8CC647",
"D c #86C149",
"F c #8BC34A",
"G c #90C746",
"H c #92CA45",
"J c #9CD341",
"K c #728794",
"L c #9CACAF",
"P c #AFBABA",
"I c #E6CF8A",
"U c #E6D1B8",
"Y c #C6DBDE",
"T c #FAFAC3",
"R c #DFEDED",
"E c #E4EFE5",
/* pixels */
"FFCh9FFFFFFFFFFFFFFFFFFFFFFFFFFFFFFFFFFFFFFFFSFFFF",
"FFFlhFFFFFFFFFFFFFFFFFFFFFFFFFFFFFFFFFFFFFFFFFFFFF",
"FFFFFFFFFFFFFFFFFFFFFFFFF9FFFFFFFFFFFFFFHGFFFFFFFF",
"FFFFFFFFFFFFFFFFFFDFFFFFF5BNFFFFFDFFCFFFFFFFFFFFFF",
"FFFFFFFzFFFFFFFFFBNFFFFFF5pjFFFFDFFDFFFFFFFFFFFFFF",
"FFFFFFF6DNFFFFFFFFFFFFFFFFFFFFNFFFFFFFFFFF9zDFFFFF",
"FFFFFFFhhVFFFFFFFFFDFFDBFFFFFFFFFFFFFFFFFFF7DCFFFF",
"FFFFFFFFFFFFFFFFFFF9MM3CFFFFFFFFFFFFFFFFFFFuyCFFFF",
"FFFFFFFDFFFFFFFFFFFHxhjFFFFFFFFBFF=DFFFGFFFFFFFFFF",
"FFFFFFDDFFFFFFFFFFFFruCFFFFFFAAFFzAAFFFFFFFFFFFFFF",
"FFFFDFNBFFFFFFFFAFFFjBFFFFFFFFxAD>DzzFFFFFFFFFFFFF",
"FFNFFFjjFFFFFFFF&FFFFFFFODFFFFSAShzD4FFFFFFFFFFFFF",
"FFFFFFCjFFFFFFCB>hFFFFFFOfFFFFdh<h;qtFFFFFFFFFFFFF",
"FFFFFFFFAFFFFFFFFFFFFFFOOFF+FFFFFFFFFFFFFFFFFFGGFF",
"FFFFFFFFDJFFFAFFFFFFFFFOOFF+FFFFFFFFFFFFFGFFFFFFFF",
"FFFFFADFF598F8FFFFFFFoFOOOF++FFFFFFFFFFFFJJMFFFFFF",
"FFFFFF89q<$FF#AFFFFFFooOOOF++FFFFFFFCFFFFFqjVFFFFF",
"FFFFFFgFh:0NF%MFFFFFFooOOO++++FFFDFFCFFFFF,VCFFFFF",
"FFFFFFFFFFFFFFFFFF9AFooEEE++++FFF=AFFFFFFF6VFFFFFF",
"FFFFFFFFFFFFFFFFFF8NFEEEEEERRRRFFn=VDFFFFFFFFFFFFF",
"FFhVFFFFFFFFFFFFFFwBEEEEEERR.R.RFHAZFFFFFFFFFFFFFF",
"FFMFFFFFFFFDAFFFFFFFEEEERRRRRRRRFFgDFFFFGHDFFFFjNF",
"FF77DFFFFFSFc9BCFFFEEERRRRRRRTIRPFFFFFFFGHDFFFFFFF",
"FBMjFFFFFFFFv2VFFFFRRRRRRRRRRRRRPFFFFFFFFADFFFFFFF",
"FFFFFFFFFBDDFFFFFFFRRRRRRRRR...RPFFFDjFFFFFFFFFFFF",
"FFFFFFFFFBDFFFFFFFYYYYRRRRR.....PFFFFFFFFFFFFFFFFF",
"FFFFSAFBFFMFFFFFYYYYYYYRRR..I.I.PFFFFFFFFMFFFFFZFF",
"FFFFFA9eFFFFFGFFYYYYYYYYRR......PFFFFFFFFn9NFFBNFF",
"FFFFFF5eBFFFFFFFYYYYYYYYYRR....PFFzFFFFFBZ50BFFFFF",
"FFFFFZdwZFFFFAFFFYYYYYYYYPPPPPPS5A,CZFFFFVs0BFFFFF",
"FFFFFFFFFFFFF99FFFYYYYYYYYKLLFFF3g6CFFFFFFFFFFFFFF",
"FFFFFFFFFFFFFhj0FFFFYYYYYKKLNFFFhejFFFFFFFFFFFFFFF",
"FFFFFHGFFFFFFFFB..FDzKKKKKK30FHFFBFFFMFFFFFFFFFFFF",
"FFNNFFFFFFFFFFFFF+FFKKKKKKK9aZFFFFFFFDFFFFHFFFFFGF",
"FFFFFFFFFFFFFFFFFFUKKKKKKKXXCNFFFFFFFFFFFFFFFDFFFF",
"FFFFFFFFFFFFFFFFFFFKKKKKKXXXFFFFFFFFFFFFFFFFFFFFFF",
"FFFFFFFFFFFFFGFFFFFFFFFFFXXXFFFFFFFFFA*FFFFFFFFFFF",
"FFFFAFFFFFBNFFFFFFFFFFFFFFoFFFFFFFAABF&A9F9FCFFFFF",
"FFFFbDFBFFFFFFFmFFFFFFFFFF  FFFFFFFzeB<$eB%MCFFFFF",
"FFFF*2VBFFFFFFFJ0AFFFFFFFFFFFFFFFFF5C1-yCF@hBFFFFF",
"FFFFFCFFFFFFFFZV67FFFFFFFFFFFFFFFFSFFBNNFFMBSFFHFF",
"FFFFFFFFFFFFFFFCkMFFFFFFFFFFFHHFFFFFFFBFFFFFFFFSFF",
"FFFFFFFF8FC4FFFFFFFFFFFFFFFFFFFFFFFFFFFFFFFBFFFFFF",
"FDDFFFFFv87eCFFFFFFFDF9FFFFFFFFDFFFFFFFFFFCNBFFFFF",
"FFFFFFFF9<pfFFFFFGFFzhFFFFFFFFFA8SFFFSBFSBFFSFFFFF",
"FFFFFFFFCiaFFFFFFFFFF9FFSFFFMFFFmAMM9BNFFFFFFFFFFF",
"FFFFFFFFFFFFFFFFeFFFFFFGGFFFA8eF0@BA$VFFFFFFFBFFFF",
"FFFFFFFFFFFFFFFFFVFFFFFFFFFFFgk<-sfM;VBFFFFF9MNBFF",
"FFwFFFFFFFFFFFFFFFFFFFFFFFFFFDFFVCFFMBFFFFFFFuNCFF",
"FF6hFFFFFFFFFFFFFFFFFFFFFFFFFFFFFFFFFFFFFFFFS;sBFF"
};
