/* XPM */
static char *_b540b153ef1437f84ef8bc5e49c3794xzJ6Rfi3Yji1VsyX[] = {
/* columns rows colors chars-per-pixel */
"32 32 7 1 ",
"  c #FFD569",
". c #9B4C51",
"X c #D01946",
"o c #802954",
"O c #E84444",
"+ c #3D253B",
"@ c #523B40",
/* pixels */
"@@@....X  Xooo X@@+++OX+++++++++",
"@@@@..X  X..@ooOX++++OO+++++++++",
"@@@@X   X....ooXOX++XOO+++++++++",
"      X@@.....ooOOXOOOOO+++++++X",
"  Xoo@@@@@....oXOOOOOXXOOOOXXXOO",
"oo...@@@......XOXooooooXXOOOOOOO",
"o@@...@@..@..XOo++.@@@@+oOOXooXO",
"o@@@@.@@@@@.XOo+++@@@@@@+OOo@@oO",
"X@@@@@.@@@@oOXo++++@@@@@@XO+@@@X",
" @@@@@@@@@@XOo++++++@@@@@oO++@@+",
" o@@@@@@@@oOOo+++++++@@@@oOX++++",
"XX@@@@@@@oXOOo+++++@@+@@ooXOo+++",
"oOXo@@ooXXOOOXo++++@@+o@@ooOXooo",
"oXOOXXOOOOOOOOXoo++++oo@@ooOOOXX",
"XOOOOOOXoo+ooXOOOOXoooooooXOOOOO",
"OXooOOXo@@@@+oXOXooOXooXOOOOOXoo",
"o+ooOXo@@@@@@+oOo+++OOOOOXo++@@@",
"..+XOo@@@@@@@@+O++@@XOOXo+++@@@@",
"@@@OOo+@@@@@@@+O++@@oOX@++++@@@@",
"@@@OX+++@@@@@@@XX+++oOo++++++@@@",
"@@oOX+@@@+@@@@@oOo++XOo++++@@+@@",
"@+oOOo@@@++@@@@oOOOOOXOo+++@@@@@",
"+oXOOo+++++++@@oOXo@@oXo++++@@+@",
"XOOOOX++++++++@XXo+@@@oO+++++++X",
"OOooOO+++++@@+oOo@@@@@@Xo+++XOOO",
"XXooXOo++++@@oOX+@@+@@@oX+XOOOOX",
"o++XXOXo++++oXOo++++@@@oXOOOXo@@",
"@@@@@oOXo++ooOo++++++@@oOXo@+@@@",
"@@@@@+oOOOXXOOo++++++@oOXo+++++@",
"@@@@@@oOOX@@OOX++++++oOXo+++++++",
"+@@@@@oOO+@@OooX+++++XOo++++++++",
"++@@@ooOX++XOooOo++ooOXo++++++++"
};
