/* XPM */
static char *_895c38f1b0747f99bf3992a31cfc944kvVAZWWdBblLm7Af[] = {
/* columns rows colors chars-per-pixel */
"32 32 26 1 ",
"  c #25131A",
". c #3D253B",
"X c #802954",
"o c #606060",
"O c #9BF0FD",
"+ c #9B4C51",
"@ c #56587B",
"# c #E84444",
"$ c #D01946",
"% c #E6DECA",
"& c #FFD569",
"* c #2A5A39",
"= c #9A8571",
"- c #BBC44E",
"; c white",
": c #E1A171",
"> c #BF704D",
", c #CAE6F5",
"< c #62ABD4",
"1 c #5880CC",
"2 c #523B40",
"3 c #A7ACBA",
"4 c #80A53F",
"5 c #895A45",
"6 c #427F3B",
"7 c black",
/* pixels */
"4444444444444*****44444444444444",
"444444444444**4444*4444444444444",
"44444444444**444444*444444444444",
"44444444444**4444444*44444444444",
"44444444444**4444444*44444444444",
"44444444444**4444444*44444444444",
"444444444**444444444*44444444444",
"44444444*.*44*44444444****444444",
"4444444******..*444****444*44444",
"4444444**4444*..*444**44444*4444",
"4444*****44444**44444*44444*4444",
"444******44444*444444*44444*4444",
"44***..***4444*444444*44444*4444",
"44***..**..****444444**444*44444",
"44****....***44*44444*****444444",
"444**.......*44**444**44444*4444",
"4444*.......********44444444*444",
"4444*..******44*44*4444444444*44",
"4444****..**44444444444444444444",
"4444*.**..**4444**44444444444444",
"4444*.******4444*.44444444444444",
"4444*********44*..44444444444444",
"44444***********..44444444444*44",
"44444***********.**444444444**44",
"444444***************44444****44",
"4444444*********2*******4444**44",
"444444444*****2422*******444*444",
"4444444444444252552*********4444",
"444444444444442555244*****444444",
"44444444444444225524444444444444",
"44444444444444225524444444444444",
"44444444444444425544444444444444"
};
